<svg id="Group_1" data-name="Group 1" xmlns="http://www.w3.org/2000/svg" viewBox="0 0 179.57 102.79"><title>Group 1</title><path id="Path_1" data-name="Path 1" d="M0,102.78V96.71a53.71,53.71,0,0,0,7.05-.77,4.9,4.9,0,0,0,1.94-1,8.24,8.24,0,0,0,1.65-2.2q.84-1.5,5-11.14Q17.55,77.05,23,63.67L42,16.59,48.47,0H58.85L91.52,76.31l4.53,10L99,93.05a7.27,7.27,0,0,0,1.39,1.9,4.46,4.46,0,0,0,1.5.88,22,22,0,0,0,4.28.51c.73.1,1.81.22,3.22.37v6.06L89,102.34l-25.65.43V96.71c5.89-.25,9.22-.57,10-1a2.19,2.19,0,0,0,1.13-2.08,19,19,0,0,0-1.68-6L66.52,71.56H29l-3.22,8.77q-3.64,10.1-3.65,12.58a2.7,2.7,0,0,0,1.17,2.48q1.76,1,10.45,1.32v6.07l-16.88-.44ZM32.31,63.23q6.87.23,15.57.22,8.4,0,15.06-.22L47.29,25.51Z" transform="translate(0 0.02)"/><path id="Path_2" data-name="Path 2" d="M93.39,41.84A47.23,47.23,0,0,1,96.49,24,37.2,37.2,0,0,1,117.55,3.18,58.35,58.35,0,0,1,137.5,0a54.62,54.62,0,0,1,18,2.61,35.43,35.43,0,0,1,12.65,7.54A34.66,34.66,0,0,1,176,20.63q3.57,7.56,3.58,18.3,0,20.3-11.8,32T135.34,82.64a51.14,51.14,0,0,1-18.14-2.9,35.35,35.35,0,0,1-12.5-7.64,34.45,34.45,0,0,1-7.39-10.38A47.51,47.51,0,0,1,93.39,41.84ZM110.84,39q0,17.22,6.76,27.31T137.38,76.4A24.21,24.21,0,0,0,150,73q5.69-3.39,8.9-11.29t3.22-19.44a64.37,64.37,0,0,0-1.48-13.9,36.94,36.94,0,0,0-4.58-11.65,22,22,0,0,0-7.79-7.65q-4.68-2.67-12.19-2.67A26.57,26.57,0,0,0,124.15,9a20.37,20.37,0,0,0-6.91,5.8,27.94,27.94,0,0,0-4.72,10.12A54.42,54.42,0,0,0,110.84,39Zm1.7,59.23-1.25-3.7a47.32,47.32,0,0,1,4.95-3.75c4.39-3,7.26-4.93,8.58-5.69A41.61,41.61,0,0,1,130,82.71q6.49,1,19,5.45,8.64,3,10.17,3.52a57,57,0,0,0,6.43,1.6,21.12,21.12,0,0,0,3.64.4,14.61,14.61,0,0,0,2.95-.29,9,9,0,0,0,1.82-.51l4.66-2v4.32q-2.21,1.25-8.41,5.06-2.38,1.55-3.64,2.5A45.26,45.26,0,0,1,161,102a131.44,131.44,0,0,1-14.1-3.52q-11.31-3.36-15.46-4.32a46.12,46.12,0,0,0-7.56-1.2,8.29,8.29,0,0,0-3.19.63A82.43,82.43,0,0,0,112.54,98.23Z" transform="translate(0 0.02)"/></svg>