<svg id="Group_6" data-name="Group 6" xmlns="http://www.w3.org/2000/svg" viewBox="0 0 304.06 58.17"><title>Group 6</title><g id="Group_5" data-name="Group 5"><g id="Group_4" data-name="Group 4"><path id="Path_15" data-name="Path 15" d="M109.89,51.54l.06-1.32V50c0-.29,0-.74-.06-1.36l.36-.24a4.47,4.47,0,0,0,1,.56,3.06,3.06,0,0,0,1,.16,2.62,2.62,0,0,0,1.59-.41,2.34,2.34,0,0,0,.8-1.28,24.29,24.29,0,0,0,.25-4.59V26.15c0-1.73,0-3.43-.08-5.09a5.78,5.78,0,0,0-.26-2.15,1.22,1.22,0,0,0-.72-.5,13.36,13.36,0,0,0-2.75-.2V17c2,.08,3.9.11,5.66.11s3.76,0,5.69-.11v1.23a13.45,13.45,0,0,0-2.76.2,1.14,1.14,0,0,0-.67.44,4.55,4.55,0,0,0-.3,1.86c0,.26,0,2.07-.08,5.44V39.9a18,18,0,0,1-.54,5,10.33,10.33,0,0,1-1.81,3.46,9.49,9.49,0,0,1-2.76,2.48,5.81,5.81,0,0,1-2.89.84A3.57,3.57,0,0,1,109.89,51.54Z" transform="translate(0 0.01)"/><path id="Path_16" data-name="Path 16" d="M124.76,44.19V43a7.89,7.89,0,0,0,2.65-.3.72.72,0,0,0,.38-.37,6.82,6.82,0,0,0,.27-2c.07-1.68.11-3.14.11-4.36V26.15c0-1.73,0-3.43-.06-5.09a6,6,0,0,0-.27-2.15,1.25,1.25,0,0,0-.71-.5,13.5,13.5,0,0,0-2.77-.2V17l5.46.12,5.78-.1q4.16-.06,6-.06a26.77,26.77,0,0,1,3.58.21,15.33,15.33,0,0,0-.42,1.9c0,.11-.14,1.44-.34,4h-1.21a20.24,20.24,0,0,0-.25-3.56,8.79,8.79,0,0,0-2.32-.59,34.08,34.08,0,0,0-4.29-.27c-.3,0-1,0-2,.07s-1.82.1-2.28.14c-.05,1.42-.09,2.74-.12,4l-.07,6.47q2.24.12,4.11.12a31.59,31.59,0,0,0,3.89-.21,1.13,1.13,0,0,0,.78-.31A4.43,4.43,0,0,0,141,27.3l.11-1.34h1.15v.37l-.1,4,.1,4.46h-1.34l0-1.3a4.56,4.56,0,0,0-.26-1.76,1.21,1.21,0,0,0-.83-.48A24.07,24.07,0,0,0,135.5,31c-.85,0-2.06,0-3.63.1-.07,1.27-.1,3.17-.1,5.68s0,4.16.1,5.38c1.83.14,3.9.21,6.18.21a25.19,25.19,0,0,0,3.47-.15,8.08,8.08,0,0,0,1.91-.52,12.7,12.7,0,0,0,.46-1.6c.28-1.14.46-2,.55-2.57h1.27a53,53,0,0,0-.5,6.41,26.69,26.69,0,0,1-4,.25L129.78,44C129.62,44,127.94,44.08,124.76,44.19Z" transform="translate(0 0.01)"/><path id="Path_17" data-name="Path 17" d="M156.37,44.4l-1.74-8-3.69-15.75a4.72,4.72,0,0,0-.77-2,5.91,5.91,0,0,0-2.37-.55V17q3.21.15,4.86.15,1.47,0,5-.15v1.15a11.63,11.63,0,0,0-2.89.29.54.54,0,0,0-.25.53,9.79,9.79,0,0,0,.23,1.7q.63,3.44.84,4.35l3,13.27,4.73-11.78q1.86-4.64,3.66-9.78h1.22Q170,22.14,171.34,26l4.5,12.48,3.26-11.43q.85-3.06,1.61-6.37a15.26,15.26,0,0,0,.34-1.74.6.6,0,0,0-.33-.59,13.66,13.66,0,0,0-3.06-.26V17c2,.08,3.34.13,4.1.13s2.16-.05,4.1-.13v1.14a4.39,4.39,0,0,0-1.76.27,1.89,1.89,0,0,0-.73.9c-.19.44-.72,2.12-1.6,5.06l-2,6.45c-.19.64-.59,2.09-1.2,4.34l-2.47,9.25h-2q-2.13-6.31-3.3-9.5l-4.36-11.81-3.81,9.46-2.4,6.26c-.33.85-.61,1.61-.85,2.28l-1.14,3.3Z" transform="translate(0 0.01)"/><path id="Path_18" data-name="Path 18" d="M187.93,44.19V43a7.86,7.86,0,0,0,2.64-.3.72.72,0,0,0,.38-.37,6.82,6.82,0,0,0,.27-2c.07-1.68.11-3.14.11-4.36V26.15c0-1.73,0-3.43-.05-5.09a6.24,6.24,0,0,0-.28-2.15,1.25,1.25,0,0,0-.71-.5,13.5,13.5,0,0,0-2.77-.2V17l5.46.12,5.78-.1q4.16-.06,6-.06a26.77,26.77,0,0,1,3.58.21,15.33,15.33,0,0,0-.42,1.9c0,.11-.14,1.44-.34,4H206.4a20.24,20.24,0,0,0-.25-3.56,8.82,8.82,0,0,0-2.31-.59,34.32,34.32,0,0,0-4.29-.27c-.31,0-1,0-2.05.07s-1.82.1-2.28.14c-.05,1.42-.09,2.74-.11,4L195,29.27c1.49.08,2.86.12,4.12.12a31.53,31.53,0,0,0,3.88-.21,1.17,1.17,0,0,0,.79-.31,4.66,4.66,0,0,0,.3-1.57l.12-1.34h1.15v.37l-.1,4,.1,4.46h-1.34l-.06-1.3a4.38,4.38,0,0,0-.26-1.76,1.21,1.21,0,0,0-.83-.48,24,24,0,0,0-4.23-.23c-.86,0-2.07,0-3.64.1-.07,1.27-.1,3.17-.1,5.68s0,4.16.1,5.38q2.76.21,6.18.21a25.12,25.12,0,0,0,3.47-.15,8,8,0,0,0,1.91-.52,11.23,11.23,0,0,0,.46-1.6c.28-1.14.47-2,.56-2.57h1.26a51.09,51.09,0,0,0-.5,6.41,26.78,26.78,0,0,1-4,.25L192.94,44C192.77,44,191.1,44.08,187.93,44.19Z" transform="translate(0 0.01)"/><path id="Path_19" data-name="Path 19" d="M213,44.19v-1a6.34,6.34,0,0,0,1.51-.88,1,1,0,0,0,.27-.44,10.5,10.5,0,0,0,.23-2.3c0-1.75.07-2.79.08-3.12V26.15c0-1.74,0-3.43-.06-5.1a6,6,0,0,0-.28-2.15,1.29,1.29,0,0,0-.71-.5,13.5,13.5,0,0,0-2.77-.2V17c3.12.11,5.05.16,5.79.16s2.65-.05,5.49-.16V18.2a13.6,13.6,0,0,0-2.77.2,1.28,1.28,0,0,0-.67.45,4.69,4.69,0,0,0-.29,1.86c0,.25,0,2.06-.08,5.43V39c0,1.34,0,2.43.08,3.27,1.45.09,2.9.14,4.32.14a28.31,28.31,0,0,0,7.57-.69,8.89,8.89,0,0,0,.44-1.32l.76-3.18h1.29q-.42,2.85-.83,6.7c-.41.08-.82.15-1.24.19-.67,0-1.69.06-3.07.06L216.68,44C215.46,44,214.21,44.08,213,44.19Z" transform="translate(0 0.01)"/><path id="Path_20" data-name="Path 20" d="M235.83,44.19V43a7.86,7.86,0,0,0,2.64-.3.72.72,0,0,0,.38-.37,6.82,6.82,0,0,0,.27-2c.08-1.68.11-3.14.11-4.36V26.15c0-1.73,0-3.43,0-5.09a6.24,6.24,0,0,0-.28-2.15,1.25,1.25,0,0,0-.71-.5,13.5,13.5,0,0,0-2.77-.2V17l5.46.12,5.78-.1q4.16-.06,6-.06a26.67,26.67,0,0,1,3.58.21,15.33,15.33,0,0,0-.42,1.9c0,.11-.14,1.44-.34,4H254.3a20.24,20.24,0,0,0-.25-3.56,8.82,8.82,0,0,0-2.31-.59,34.32,34.32,0,0,0-4.29-.27c-.31,0-1,0-2,.07s-1.82.1-2.28.14c-.05,1.42-.09,2.74-.11,4l-.08,6.47c1.49.08,2.86.12,4.12.12a31.53,31.53,0,0,0,3.88-.21,1.17,1.17,0,0,0,.79-.31,4.66,4.66,0,0,0,.3-1.57l.12-1.34h1.15v.37l-.09,4,.09,4.46H252l-.06-1.3a4.38,4.38,0,0,0-.25-1.76,1.25,1.25,0,0,0-.84-.48,23.91,23.91,0,0,0-4.23-.23c-.85,0-2.06,0-3.63.1-.07,1.27-.1,3.17-.1,5.68s0,4.16.1,5.38q2.75.21,6.18.21a25,25,0,0,0,3.46-.15,8,8,0,0,0,1.92-.52,12.7,12.7,0,0,0,.46-1.6c.28-1.14.46-2,.55-2.57h1.26a55.16,55.16,0,0,0-.5,6.41,26.69,26.69,0,0,1-4,.25L240.84,44C240.68,44,239,44.08,235.83,44.19Z" transform="translate(0 0.01)"/><path id="Path_21" data-name="Path 21" d="M259.28,18.21V17l2.28.06,3.67.1c.73,0,1.86,0,3.39-.08,2-.07,3.15-.11,3.47-.11a15.77,15.77,0,0,1,5.33.65A5.22,5.22,0,0,1,280,19.71a5.84,5.84,0,0,1,.92,3.19,6.67,6.67,0,0,1-.86,3.2,7.12,7.12,0,0,1-2.5,2.64,13,13,0,0,1-4.26,1.63c.32.45,1.07,1.44,2.26,3l4.82,6.35c1.38,1.78,2.19,2.77,2.42,3a1.14,1.14,0,0,0,.34.19,4.88,4.88,0,0,0,1.26.1V44.2c-1-.08-1.81-.12-2.54-.12s-1.68,0-2.78.12q-1.24-1.44-4.17-5.61c-1.09-1.55-2-2.83-2.87-3.87q-2-2.56-3.83-4.65l.19-.57c.66,0,1.17.05,1.51.05a7.57,7.57,0,0,0,5.28-1.64,5.61,5.61,0,0,0,1.8-4.35,4.73,4.73,0,0,0-1.55-3.74,6.83,6.83,0,0,0-4.69-1.39,13,13,0,0,0-3.86.59c0,.69-.09,1.34-.12,1.94,0,.18,0,2-.13,5.57V35c0,1.73,0,3.42.07,5.07a6.31,6.31,0,0,0,.26,2.16,1.32,1.32,0,0,0,.72.51,13.45,13.45,0,0,0,2.76.2V44.2c-1.81-.11-3.48-.16-5-.16q-1.84,0-6.19.16V43a13.4,13.4,0,0,0,2.76-.2,1.25,1.25,0,0,0,.69-.45,4.87,4.87,0,0,0,.29-1.86c0-.26,0-2.07.07-5.43V26.16c0-1.73,0-3.43-.05-5.09a6,6,0,0,0-.28-2.15,1.25,1.25,0,0,0-.71-.5A12.8,12.8,0,0,0,259.28,18.21Z" transform="translate(0 0.01)"/><path id="Path_22" data-name="Path 22" d="M285.85,43.25a43.81,43.81,0,0,0,.37-6h1.3a14.14,14.14,0,0,0,.31,3.3,2.89,2.89,0,0,0,1.06,1.08,10.09,10.09,0,0,0,5,1.47,7.24,7.24,0,0,0,3.56-.89,5.63,5.63,0,0,0,2.38-2.33,6.68,6.68,0,0,0,.74-3.1,5.82,5.82,0,0,0-.37-2.18,3.39,3.39,0,0,0-1.14-1.48,4.71,4.71,0,0,0-1.9-.8c-.47-.08-1.42-.21-2.83-.38s-2.62-.38-3.62-.6A8.08,8.08,0,0,1,287.78,30a6,6,0,0,1-1.52-2.17,7.32,7.32,0,0,1-.59-2.89,8.31,8.31,0,0,1,1.18-4.26,7.91,7.91,0,0,1,3.49-3.11,11.51,11.51,0,0,1,5-1.11,16.27,16.27,0,0,1,3.55.44,15.19,15.19,0,0,1,3.59,1.27c-.16.74-.29,1.49-.38,2.24s-.13,1.73-.17,3.08h-1.3a23.08,23.08,0,0,0-.17-3.22,5.1,5.1,0,0,0-1.3-1.24A8.16,8.16,0,0,0,295,17.88a5.9,5.9,0,0,0-4.43,1.69A6.05,6.05,0,0,0,289,24a4.55,4.55,0,0,0,.6,2.52,4,4,0,0,0,2.12,1.42,19.32,19.32,0,0,0,3.45.68c1.59.21,3,.44,4.31.68a7.43,7.43,0,0,1,2.66,1.27,5.69,5.69,0,0,1,1.41,1.93,6.61,6.61,0,0,1,.56,2.8,8.65,8.65,0,0,1-3.16,6.64,11.76,11.76,0,0,1-8.18,2.83A15.55,15.55,0,0,1,285.85,43.25Z" transform="translate(0 0.01)"/></g><g id="Group_27" data-name="Group 27"><path id="Path_1" data-name="Path 1" d="M0,58.16V54.72a29.68,29.68,0,0,0,4-.43,2.84,2.84,0,0,0,1.1-.58A4.69,4.69,0,0,0,6,52.47c.32-.56,1.26-2.67,2.84-6.31Q9.93,43.6,13,36L23.79,9.39,27.43,0h5.88L51.8,43.18l2.56,5.67L56,52.66a4.08,4.08,0,0,0,.78,1.07,2.61,2.61,0,0,0,.85.5,12.4,12.4,0,0,0,2.42.29c.41.06,1,.13,1.82.21v3.43l-11.5-.25-14.52.25V54.73q5-.21,5.65-.56A1.24,1.24,0,0,0,42.16,53a10.85,10.85,0,0,0-.95-3.39l-3.56-9.1H16.38l-1.82,5q-2.07,5.72-2.07,7.12a1.52,1.52,0,0,0,.66,1.4q1,.59,5.92.75v3.43l-9.56-.25ZM18.28,35.78q3.88.12,8.81.12,4.76,0,8.52-.12L26.76,14.44Z" transform="translate(0 0.01)"/><path id="Path_2" data-name="Path 2" d="M52.85,23.67A26.63,26.63,0,0,1,54.6,13.56,21,21,0,0,1,66.52,1.8,33.09,33.09,0,0,1,77.81,0,30.86,30.86,0,0,1,88,1.48a20.06,20.06,0,0,1,7.16,4.26,19.76,19.76,0,0,1,4.44,5.94,24.11,24.11,0,0,1,2,10.36q0,11.48-6.67,18.11T76.58,46.77a28.89,28.89,0,0,1-10.26-1.64,20.08,20.08,0,0,1-7.08-4.32,19.83,19.83,0,0,1-4.18-5.88A26.89,26.89,0,0,1,52.85,23.67Zm9.87-1.6q0,9.75,3.83,15.46t11.19,5.71a13.79,13.79,0,0,0,7.14-1.92,12.62,12.62,0,0,0,5-6.38,29.26,29.26,0,0,0,1.81-11,36.53,36.53,0,0,0-.83-7.87,21.08,21.08,0,0,0-2.59-6.59A12.44,12.44,0,0,0,83.9,5.15,13.88,13.88,0,0,0,77,3.64a15.05,15.05,0,0,0-6.76,1.45,11.54,11.54,0,0,0-3.9,3.28,15.7,15.7,0,0,0-2.67,5.72A30.69,30.69,0,0,0,62.72,22.07Zm1,33.52L63,53.5a26.47,26.47,0,0,1,2.8-2.13q3.72-2.57,4.85-3.21a22.81,22.81,0,0,1,2.93-1.35,67.3,67.3,0,0,1,10.78,3.08l5.75,2a32.78,32.78,0,0,0,3.64.9,11.91,11.91,0,0,0,2.06.22,8.51,8.51,0,0,0,1.67-.16,5.26,5.26,0,0,0,1-.29l2.64-1.12v2.44c-.84.47-2.43,1.43-4.76,2.86-.91.58-1.59,1.06-2.06,1.42a24.88,24.88,0,0,1-3.22-.42,73.26,73.26,0,0,1-8-2c-4.26-1.27-7.18-2.08-8.75-2.45a25.6,25.6,0,0,0-4.28-.67,4.79,4.79,0,0,0-1.79.35,44.26,44.26,0,0,0-4.6,2.61Z" transform="translate(0 0.01)"/></g></g></svg>