<svg id="Group_3" data-name="Group 3" xmlns="http://www.w3.org/2000/svg" viewBox="0 0 304.07 166.11"><title>Group 3</title><g id="Group_2" data-name="Group 2"><path id="Path_5" data-name="Path 5" d="M0,165.94l.09-2.07v-.41q0-.71-.09-2.13l.57-.39a6.57,6.57,0,0,0,1.6.88,5.05,5.05,0,0,0,1.63.26,4.13,4.13,0,0,0,2.49-.65,3.64,3.64,0,0,0,1.26-2,37.48,37.48,0,0,0,.39-7.18V126.19c0-2.72,0-5.37-.12-8a9.21,9.21,0,0,0-.4-3.38,2.1,2.1,0,0,0-1.13-.78A21.47,21.47,0,0,0,2,113.75v-1.92q4.72.18,8.87.18c2.92,0,5.88-.06,8.9-.18v1.92a21.56,21.56,0,0,0-4.32.31,1.84,1.84,0,0,0-1,.7,7.25,7.25,0,0,0-.48,2.91q0,.6-.12,8.52v21.52a28.24,28.24,0,0,1-.84,7.77,16.21,16.21,0,0,1-2.83,5.41,14.61,14.61,0,0,1-4.33,3.88,9.17,9.17,0,0,1-4.53,1.32A5.28,5.28,0,0,1,0,165.94Z" transform="translate(0 0.02)"/><path id="Path_6" data-name="Path 6" d="M23.3,154.43v-1.89a12,12,0,0,0,4.13-.48,1.08,1.08,0,0,0,.6-.57,10.43,10.43,0,0,0,.42-3.14q.18-4,.18-6.84V126.19q0-4.08-.09-8a9.62,9.62,0,0,0-.43-3.37,2,2,0,0,0-1.11-.78,21.66,21.66,0,0,0-4.33-.31v-1.92l8.54.18,9-.15q6.51-.09,9.45-.09a43.72,43.72,0,0,1,5.6.33,24.55,24.55,0,0,0-.66,3c0,.18-.22,2.25-.53,6.23H52.23a32.59,32.59,0,0,0-.39-5.58,14.25,14.25,0,0,0-3.63-.93,55.86,55.86,0,0,0-6.72-.41c-.48,0-1.55,0-3.2.12s-2.85.15-3.57.2q-.12,3.33-.18,6.24l-.12,10.13c2.34.12,4.48.18,6.44.18a47.61,47.61,0,0,0,6.09-.33,1.83,1.83,0,0,0,1.23-.48,7.32,7.32,0,0,0,.48-2.46l.18-2.1h1.8v.58l-.15,6.23.15,7h-2.1l-.09-2a7,7,0,0,0-.4-2.76,2,2,0,0,0-1.3-.75,38.81,38.81,0,0,0-6.64-.36q-2,0-5.7.15-.15,3-.15,8.9,0,5.55.15,8.43,4.32.33,9.69.33a44.85,44.85,0,0,0,5.43-.24,13.2,13.2,0,0,0,3-.81,20.55,20.55,0,0,0,.71-2.52q.66-2.67.87-4h2a80.36,80.36,0,0,0-.78,10,41,41,0,0,1-6.26.39l-17.9-.24Z" transform="translate(0 0.02)"/><path id="Path_7" data-name="Path 7" d="M72.79,154.76l-2.72-12.5-5.79-24.67a7.31,7.31,0,0,0-1.2-3.1c-.38-.33-1.62-.62-3.72-.86v-1.8q5,.24,7.61.24,2.31,0,7.8-.24v1.8a19.06,19.06,0,0,0-4.52.45.88.88,0,0,0-.39.84,17.14,17.14,0,0,0,.36,2.67q1,5.37,1.32,6.8l4.7,20.78,7.41-18.44q2.91-7.24,5.72-15.32h1.92Q94,119.93,96.24,126l7,19.55,5.1-17.9q1.35-4.8,2.52-10a21.25,21.25,0,0,0,.54-2.73,1,1,0,0,0-.52-.92,20.73,20.73,0,0,0-4.78-.4v-1.8q4.6.21,6.41.21t6.42-.21v1.8a6.83,6.83,0,0,0-2.76.42,2.92,2.92,0,0,0-1.14,1.41q-.45,1-2.52,7.92l-3.09,10.1c-.29,1-.92,3.26-1.88,6.8l-3.88,14.48h-3q-3.33-9.9-5.16-14.87l-6.84-18.5-6,14.81L78.94,146c-.52,1.34-1,2.53-1.33,3.58s-1,2.78-1.79,5.18Z" transform="translate(0 0.02)"/><path id="Path_8" data-name="Path 8" d="M122.2,154.43v-1.89a12.06,12.06,0,0,0,4.14-.48,1.11,1.11,0,0,0,.6-.57,10.76,10.76,0,0,0,.42-3.14q.18-4,.18-6.84V126.19q0-4.08-.09-8a9.4,9.4,0,0,0-.44-3.37,2.06,2.06,0,0,0-1.1-.78,21.76,21.76,0,0,0-4.34-.31v-1.92l8.55.18,9-.15c4.34-.06,7.48-.09,9.44-.09a43.77,43.77,0,0,1,5.61.33,23.15,23.15,0,0,0-.66,3q-.06.27-.54,6.24h-1.89a32.52,32.52,0,0,0-.39-5.58,13.37,13.37,0,0,0-3.63-.93,53.73,53.73,0,0,0-6.71-.42q-.72,0-3.21.12t-3.57.21q-.12,3.33-.18,6.24l-.12,10.13q3.51.18,6.45.18a47.55,47.55,0,0,0,6.08-.33,1.79,1.79,0,0,0,1.23-.48,6.9,6.9,0,0,0,.48-2.46l.18-2.1h1.8v.57l-.15,6.24.15,7h-2.1l-.09-2a6.79,6.79,0,0,0-.4-2.75,1.88,1.88,0,0,0-1.3-.75,38.57,38.57,0,0,0-6.62-.36q-2,0-5.7.15c-.1,2-.15,5-.15,8.9q0,5.53.15,8.42c2.88.22,6.1.33,9.68.33a41,41,0,0,0,5.43-.24,12.92,12.92,0,0,0,3-.81,18.14,18.14,0,0,0,.72-2.52q.66-2.67.87-4h2a80.52,80.52,0,0,0-.78,10,43.81,43.81,0,0,1-6.27.39l-17.9-.24Z" transform="translate(0 0.02)"/><path id="Path_9" data-name="Path 9" d="M161.38,154.43v-1.56a9.54,9.54,0,0,0,2.37-1.38,1.41,1.41,0,0,0,.42-.69,16.72,16.72,0,0,0,.36-3.6c.08-2.73.12-4.36.12-4.88V126.19c0-2.72,0-5.37-.09-8a9.65,9.65,0,0,0-.43-3.38,2.09,2.09,0,0,0-1.11-.78,21.71,21.71,0,0,0-4.34-.31v-1.92q7.32.24,9.06.24c1.28,0,4.14-.08,8.6-.24v1.92a21.76,21.76,0,0,0-4.34.31,2,2,0,0,0-1.06.7,7.61,7.61,0,0,0-.45,2.91q0,.6-.12,8.52v20.14q0,3.15.12,5.13,3.42.21,6.78.21,8.44,0,11.84-1.08a14.78,14.78,0,0,0,.69-2.07l1.2-5h2q-.66,4.47-1.29,10.5-1,.19-1.95.3-1.56.09-4.8.09l-17.75-.24Q164.36,154.19,161.38,154.43Z" transform="translate(0 0.02)"/><path id="Path_10" data-name="Path 10" d="M197.21,154.43v-1.89a12.06,12.06,0,0,0,4.14-.48,1.11,1.11,0,0,0,.6-.57,10.76,10.76,0,0,0,.42-3.14q.18-4,.18-6.84V126.19q0-4.08-.09-8a9.4,9.4,0,0,0-.44-3.37,2,2,0,0,0-1.11-.78,21.66,21.66,0,0,0-4.33-.31v-1.92l8.54.18,9.06-.15c4.34-.06,7.48-.09,9.44-.09a43.77,43.77,0,0,1,5.61.33,24.55,24.55,0,0,0-.66,3c0,.18-.22,2.25-.54,6.23h-1.89a32.59,32.59,0,0,0-.39-5.58,14.15,14.15,0,0,0-3.63-.93,55.7,55.7,0,0,0-6.71-.41q-.72,0-3.21.12c-1.66.08-2.85.15-3.57.2q-.12,3.33-.18,6.24l-.12,10.13q3.51.18,6.45.18a47.45,47.45,0,0,0,6.08-.33,1.79,1.79,0,0,0,1.23-.48,6.86,6.86,0,0,0,.48-2.46l.18-2.1h1.8v.58l-.15,6.23.15,7h-2.1l-.09-2a6.81,6.81,0,0,0-.4-2.76,2,2,0,0,0-1.3-.75,38.69,38.69,0,0,0-6.63-.36q-2,0-5.7.15-.15,3-.15,8.9,0,5.55.15,8.42,4.32.33,9.68.33a41,41,0,0,0,5.43-.24,12,12,0,0,0,3-.81,18.14,18.14,0,0,0,.72-2.52c.44-1.77.73-3.11.87-4h2a80.36,80.36,0,0,0-.78,10,43.81,43.81,0,0,1-6.27.39l-17.9-.24Z" transform="translate(0 0.02)"/><path id="Path_11" data-name="Path 11" d="M233.94,113.75v-1.92l3.56.09,5.76.15q1.71,0,5.31-.12c3.11-.12,4.92-.18,5.42-.18q5.73,0,8.35,1a8.11,8.11,0,0,1,4.06,3.31,9.18,9.18,0,0,1,1.44,5,10.46,10.46,0,0,1-1.34,5,11.36,11.36,0,0,1-3.92,4.14,20.48,20.48,0,0,1-6.67,2.54q.75,1,3.54,4.68l7.55,9.95q3.24,4.17,3.78,4.65a1.91,1.91,0,0,0,.54.3,8.23,8.23,0,0,0,2,.15v1.92q-2.28-.18-4-.18c-1.18,0-2.63.06-4.34.18q-2-2.25-6.54-8.79-2.55-3.62-4.5-6-3.15-4-6-7.29l.3-.9q1.56.09,2.37.09c3.64,0,6.39-.86,8.27-2.58a8.78,8.78,0,0,0,2.82-6.8,7.49,7.49,0,0,0-2.43-5.86q-2.43-2.18-7.34-2.17a20.07,20.07,0,0,0-6.06.93q-.12,1.62-.18,3c0,.28-.09,3.18-.21,8.72v13.31q0,4.08.12,8a9.22,9.22,0,0,0,.41,3.38,1.94,1.94,0,0,0,1.12.8,20.8,20.8,0,0,0,4.32.31v1.92q-4.26-.24-7.83-.24c-1.92,0-5.14.08-9.68.24v-1.92a21.62,21.62,0,0,0,4.32-.31,2,2,0,0,0,1.07-.7,7.58,7.58,0,0,0,.45-2.91q0-.63.12-8.52V126.19q0-4.08-.09-8a9.39,9.39,0,0,0-.43-3.37,2,2,0,0,0-1.11-.78A21.62,21.62,0,0,0,233.94,113.75Z" transform="translate(0 0.02)"/><path id="Path_12" data-name="Path 12" d="M275.55,153a69.1,69.1,0,0,0,.57-9.32h2a21.91,21.91,0,0,0,.5,5.17,4.42,4.42,0,0,0,1.66,1.69,13.61,13.61,0,0,0,3.54,1.6,13.88,13.88,0,0,0,4.29.71,11.42,11.42,0,0,0,5.57-1.39,8.81,8.81,0,0,0,3.72-3.66,10.35,10.35,0,0,0,1.17-4.84,8.87,8.87,0,0,0-.59-3.42,5.23,5.23,0,0,0-1.78-2.32,7.37,7.37,0,0,0-3-1.25q-1.11-.18-4.44-.6t-5.66-.93a12.54,12.54,0,0,1-4.59-2.25,9.45,9.45,0,0,1-2.38-3.38,11.23,11.23,0,0,1-.92-4.53,12.94,12.94,0,0,1,1.85-6.67,12.25,12.25,0,0,1,5.45-4.87,17.74,17.74,0,0,1,7.84-1.74,25.32,25.32,0,0,1,5.56.68,24.25,24.25,0,0,1,5.62,2,34.48,34.48,0,0,0-.6,3.52c-.12,1.09-.21,2.69-.27,4.81h-2a35.4,35.4,0,0,0-.27-5,7.88,7.88,0,0,0-2-2,12.93,12.93,0,0,0-6.45-1.73,9.21,9.21,0,0,0-6.94,2.65,9.4,9.4,0,0,0-2.59,6.87,7,7,0,0,0,.93,3.94,6.32,6.32,0,0,0,3.32,2.23,30.36,30.36,0,0,0,5.4,1.07q3.75.5,6.75,1.06a11.73,11.73,0,0,1,4.17,2,8.88,8.88,0,0,1,2.22,3,10.5,10.5,0,0,1,.87,4.39,13.6,13.6,0,0,1-4.95,10.4q-5,4.42-12.8,4.43A24.43,24.43,0,0,1,275.55,153Z" transform="translate(0 0.02)"/></g><g id="Group_26" data-name="Group 26"><path id="Path_1" data-name="Path 1" d="M72.23,91.07V85.69A46.66,46.66,0,0,0,78.48,85a4.44,4.44,0,0,0,1.72-.9,7.32,7.32,0,0,0,1.46-2q.74-1.32,4.44-9.87,1.68-4,6.47-15.87L109.48,14.7,115.18,0h9.2l29,67.63,4,8.87,2.59,6a6.59,6.59,0,0,0,1.24,1.68,3.75,3.75,0,0,0,1.32.78,19.44,19.44,0,0,0,3.79.46c.65.08,1.6.19,2.85.32v5.37l-18-.39-22.74.39V85.69c5.22-.21,8.17-.51,8.84-.87a1.94,1.94,0,0,0,1-1.85,16.7,16.7,0,0,0-1.49-5.31l-5.57-14.25H97.88L95,71.18q-3.26,8.94-3.24,11.14a2.36,2.36,0,0,0,1,2.2q1.56.92,9.27,1.17v5.38l-15-.39Zm28.63-35q6.09.19,13.8.2,7.45,0,13.35-.2L114.15,22.6Z" transform="translate(0 0.02)"/><path id="Path_2" data-name="Path 2" d="M155,37.07a41.78,41.78,0,0,1,2.74-15.84A33,33,0,0,1,176.39,2.82,51.4,51.4,0,0,1,194.07,0a48.21,48.21,0,0,1,16,2.31A31.32,31.32,0,0,1,221.22,9a30.79,30.79,0,0,1,7,9.29,37.86,37.86,0,0,1,3.17,16.22q0,18-10.45,28.36T192.16,73.24a45.31,45.31,0,0,1-16.07-2.57A31.4,31.4,0,0,1,165,63.9a30.66,30.66,0,0,1-6.55-9.2A42.21,42.21,0,0,1,155,37.07Zm15.46-2.52q0,15.27,6,24.2T194,67.69a21.38,21.38,0,0,0,11.19-3q5-3,7.88-10t2.85-17.22a57.37,57.37,0,0,0-1.31-12.32,32.75,32.75,0,0,0-4.06-10.32,19.32,19.32,0,0,0-6.9-6.78q-4.16-2.37-10.8-2.37A23.62,23.62,0,0,0,182.24,8a18.18,18.18,0,0,0-6.12,5.14,24.78,24.78,0,0,0-4.18,9,48.4,48.4,0,0,0-1.49,12.51ZM172,87l-1.11-3.27a40.53,40.53,0,0,1,4.39-3.33q5.83-4,7.6-5a36.62,36.62,0,0,1,4.59-2.11q5.73.9,16.87,4.83,7.66,2.67,9,3.13A55.6,55.6,0,0,0,219,82.66a18.34,18.34,0,0,0,3.22.35,13.52,13.52,0,0,0,2.62-.25,8.22,8.22,0,0,0,1.61-.46l4.14-1.76v3.83q-2,1.11-7.46,4.48c-1.41.91-2.49,1.65-3.22,2.22a40.62,40.62,0,0,1-5-.65,116.35,116.35,0,0,1-12.49-3.13q-10-3-13.7-3.82a39.94,39.94,0,0,0-6.7-1.06,7.34,7.34,0,0,0-2.82.55A73,73,0,0,0,172,87Z" transform="translate(0 0.02)"/></g></svg>